<svg xmlns="http://www.w3.org/2000/svg" viewBox="0 0 100 100" x="0px" y="0px">
    <title>Add</title>
    <g>
        <path d="M79.4141,24.5859l-16-16A1.9985,1.9985,0,0,0,62,8H18a1.9988,1.9988,0,0,0-2,2V86a1.9988,1.9988,0,0,0,2,2H78a1.9988,1.9988,0,0,0,2-2V26A1.9987,1.9987,0,0,0,79.4141,24.5859ZM64,14.8281,73.1719,24H64ZM20,84V12H60V26a1.9988,1.9988,0,0,0,2,2H76V84Z"/>
        <path d="M54,50H50V46a2,2,0,0,0-4,0v4H42a2,2,0,0,0,0,4h4v4a2,2,0,0,0,4,0V54h4a2,2,0,0,0,0-4Z"/>
        <path d="M48,36A16,16,0,1,0,64,52,16.0183,16.0183,0,0,0,48,36Zm0,28A12,12,0,1,1,60,52,12.0131,12.0131,0,0,1,48,64Z"/>
    </g>
</svg>