<svg xmlns="http://www.w3.org/2000/svg" version="1.1" x="0px" y="0px" viewBox="0 0 100 100">
    <g transform="translate(0,-952.36218)">
        <path style="text-indent:0;text-transform:none;direction:ltr;block-progression:tb;baseline-shift:baseline;color:#000000;enable-background:accumulate;" d="m 13.8125,958.3622 c -0.983168,0.0927 -1.816758,1.01249 -1.8125,2 l 0,62 c 1.31e-4,1.0471 0.952848,1.9999 2,2 l 20,0 0,20 c 7.8e-5,1.0472 0.952814,1.9999 2,2 l 50,0 c 1.047186,-10e-5 1.999922,-0.9528 2,-2 l 0,-50.00001 c -0.0042,-0.52204 -0.222532,-1.03918 -0.59375,-1.40625 l -12,-12 C 75.039181,980.58472 74.522037,980.36638 74,980.36219 l -8,0 0,-7.99999 c -0.0042,-0.52205 -0.222532,-1.03919 -0.59375,-1.40626 l -12,-12 C 53.039181,958.58473 52.522037,958.36638 52,958.3622 c -12.724661,0 -25.47629,0 -38.1875,0 z m 2.1875,4 33,0 0,10.99999 c 1.04e-4,1.04717 0.952831,1.9999 2,2 l 11,0 0,5 c -8.724108,0 -17.477062,0 -26.1875,0 -0.983168,0.0927 -1.816758,1.01249 -1.8125,2 l 0,38.00001 -18,0 z m 37,1.81249 7.1875,7.1875 -7.1875,0 z m -15,20.1875 33,0 0,11 c 1.04e-4,1.04716 0.952831,1.9999 2,2 l 11,0 0,45.00001 -46,0 z m 37,1.8125 7.1875,7.1875 -7.1875,0 z" fill="#000000" fill-opacity="1" stroke="none" marker="none" visibility="visible" display="inline" overflow="visible"/>
    </g>
</svg>