<svg xmlns="http://www.w3.org/2000/svg" version="1.1" x="0px" y="0px" viewBox="0 0 100 100">
    <g transform="translate(0,-952.36218)">
        <path style="text-indent:0;text-transform:none;direction:ltr;block-progression:tb;baseline-shift:baseline;color:#000000;enable-background:accumulate;" d="M 17.8125,6 C 16.829332,6.0926607 15.995742,7.0124846 16,8 l 0,84 c 1.05e-4,1.047169 0.952831,1.999895 2,2 l 64,0 c 1.047169,-1.05e-4 1.999895,-0.952831 2,-2 l 0,-68 c -0.0042,-0.522037 -0.222534,-1.039182 -0.59375,-1.40625 l -16,-16 C 67.039182,6.2225337 66.522037,6.0041837 66,6 49.941743,5.9999998 33.857409,6 17.8125,6 z M 20,10 l 44,0 0,14 c 1.05e-4,1.047169 0.952831,1.999895 2,2 l 14,0 0,64 -60,0 z M 68,12.8125 77.1875,22 68,22 z M 37.78125,45.96875 c -0.757272,0.0737 -1.44839,0.618541 -1.696823,1.337689 -0.248433,0.719147 -0.04098,1.574403 0.509323,2.099811 L 47.1875,60 36.59375,70.5625 c -0.768358,0.730731 -0.789353,2.102006 -0.04373,2.855918 0.745627,0.753911 2.11705,0.748069 2.856226,-0.01217 L 50,62.8125 60.59375,73.40625 c 0.739176,0.760237 2.110599,0.766079 2.856226,0.01217 0.745627,-0.753912 0.724632,-2.125187 -0.04373,-2.855918 L 52.8125,60 63.40625,49.40625 c 0.615143,-0.57774 0.79892,-1.565931 0.432611,-2.326195 C 63.472551,46.31979 62.585183,45.847697 61.75,45.96875 c -0.436739,0.0631 -0.850501,0.275568 -1.15625,0.59375 L 50,57.15625 39.40625,46.5625 c -0.416545,-0.426795 -1.031424,-0.651462 -1.625,-0.59375 z" transform="translate(0,952.36218)" fill="#000000" fill-opacity="1" stroke="none" marker="none" visibility="visible" display="inline" overflow="visible"/>
    </g>
</svg>