<svg xmlns="http://www.w3.org/2000/svg" viewBox="0 0 100 100" fill="none" x="0px" y="0px">
    <path fill-rule="evenodd" clip-rule="evenodd" d="M50 33C40.6112 33 33 40.6112 33 50C33 59.3888 40.6112 67 50 67C59.3888 67 67 59.3888 67 50C67 40.6112 59.3888 33 50 33ZM39 50C39 43.9249 43.9249 39 50 39C56.0751 39 61 43.9249 61 50C61 56.0751 56.0751 61 50 61C43.9249 61 39 56.0751 39 50Z" fill="black"/>
    <path fill-rule="evenodd" clip-rule="evenodd" d="M10.2787 51.4036C9.90711 50.505 9.90711 49.495 10.2787 48.5964C16.7345 32.9829 32.0876 22 50 22C67.9124 22 83.2655 32.9829 89.7213 48.5964C90.0929 49.495 90.0929 50.505 89.7213 51.4036C83.2655 67.0171 67.9124 78 50 78C32.0876 78 16.7345 67.0171 10.2787 51.4036ZM50 72C34.947 72 21.9737 62.9787 16.2047 50C21.9737 37.0213 34.947 28 50 28C65.053 28 78.0264 37.0213 83.7953 50C78.0264 62.9787 65.053 72 50 72Z" fill="black"/>
</svg>