<svg xmlns="http://www.w3.org/2000/svg" viewBox="0 0 100 100" fill="none" x="0px" y="0px">
    <path fill-rule="evenodd" clip-rule="evenodd" d="M17.8787 17.8787C16.7071 19.0503 16.7071 20.9497 17.8787 22.1213L25.4629 29.7056C18.7581 34.3867 13.4469 40.9339 10.2787 48.5964C9.90711 49.495 9.90711 50.505 10.2787 51.4036C16.7345 67.0171 32.0876 78 50 78C56.9087 78 63.4367 76.3662 69.2204 73.463L77.8787 82.1213C79.0503 83.2929 80.9497 83.2929 82.1213 82.1213C83.2929 80.9497 83.2929 79.0503 82.1213 77.8787L22.1213 17.8787C20.9498 16.7071 19.0503 16.7071 17.8787 17.8787ZM29.7832 34.0259C23.8615 37.9091 19.1158 43.4507 16.2047 50C21.9737 62.9787 34.947 72 50 72C55.2248 72 60.1991 70.9131 64.7086 68.9512L59.7119 63.9546C56.9588 65.8742 53.6109 67 50 67C40.6112 67 33 59.3888 33 50C33 46.3891 34.1258 43.0412 36.0454 40.2881L29.7832 34.0259ZM40.3939 44.6365C39.5061 46.2233 39 48.0525 39 50C39 56.0751 43.9249 61 50 61C51.9475 61 53.7767 60.4939 55.3635 59.6061L40.3939 44.6365Z" fill="black"/>
    <path d="M79.7682 65.9946C78.6513 67.0698 76.8892 66.9897 75.793 65.8935C74.5497 64.6502 74.6564 62.6127 75.9093 61.3792C79.2004 58.1391 81.8905 54.2852 83.7953 50C78.0264 37.0213 65.053 28 50 28C46.9804 28 44.0445 28.363 41.2337 29.0482C40.1181 29.3201 38.9289 29.0294 38.117 28.2175C36.5151 26.6156 37.106 23.909 39.3002 23.3456C42.7209 22.4671 46.306 22 50 22C67.9124 22 83.2655 32.9829 89.7213 48.5964C90.0929 49.495 90.0929 50.505 89.7213 51.4036C87.43 56.9453 84.0178 61.9036 79.7682 65.9946Z" fill="black"/>
    <path d="M66.9832 50.7634C66.8719 53.282 63.8887 53.9892 62.106 52.2065L61.6947 51.7952C61.2233 51.3238 61 50.6666 61 50C61 43.9249 56.0751 39 50 39C49.3334 39 48.6762 38.7767 48.2048 38.3053L47.7935 37.894C46.0108 36.1113 46.718 33.1281 49.2366 33.0168C49.4897 33.0056 49.7442 33 50 33C59.3888 33 67 40.6112 67 50C67 50.2558 66.9944 50.5103 66.9832 50.7634Z" fill="black"/>
</svg>